# xmcd CD database file
#
# Track frame offsets:
#	150
#	29900
#	53512
#	76062
#	98225
#	117275
#	144000
#	160087
#	173750
#	186450
#
# Disc length: 2678 seconds
#
# Revision: 0
# Processed by: cddbd v1.4PL0 Copyright (c) Steve Scherf et al.
# Submitted via: CDex 1.51
#
DISCID=790a740a
DTITLE=LOUIS ARMSTRONG - JAZZ SPECIAL SELECTION - 19
DYEAR=1900
DGENRE=Jazz
TTITLE0=IT AIN'T NECESSARY SO
TTITLE1=SWEET LORRAINE
TTITLE2=SUMMER TIME
TTITLE3=NOBODY KNOWS THE TROUBLE I'V SEEN
TTITLE4=TOP HAT , WHITE TIE AND TAILS
TTITLE5=CHEEK TO CHEEK
TTITLE6=ON THE SUNNY SIDE OF THE STREET
TTITLE7=TIN ROOF BLUES
TTITLE8=TYREE'S BLUES
TTITLE9=WHEN THE SAINTS GO MARCHING IN
EXTD=
EXTT0=
EXTT1=
EXTT2=
EXTT3=
EXTT4=
EXTT5=
EXTT6=
EXTT7=
EXTT8=
EXTT9=
PLAYORDER=
